<svg width="44" height="44" viewBox="0 0 44 44" version="1.1" xmlns="http://www.w3.org/2000/svg" xmlns:xlink="http://www.w3.org/1999/xlink" xmlns:figma="http://www.figma.com/figma/ns">
<title>uncomfortablevr_logo</title>
<desc>Created using Figma</desc>
<g id="Canvas" transform="translate(1888 152)" figma:type="canvas">
<g id="uncomfortablevr_logo" figma:type="frame">
<g id="Layer 2" figma:type="frame">
<g id="Layer 4" figma:type="frame">
<g id="Ellipse 1" figma:type="frame">
<g id="Vector" figma:type="vector">
<use xlink:href="#path0_fill" transform="translate(-1887.15 -150.999)" fill="#00FC01"/>
</g>
</g>
<g id="Vector" figma:type="vector">
<use xlink:href="#path1_fill" transform="translate(-1887.33 -151.333)"/>
</g>
<g id="Vector" figma:type="vector">
<use xlink:href="#path2_fill" transform="translate(-1861.69 -133.647)"/>
</g>
<g id="Vector" figma:type="vector">
<use xlink:href="#path3_fill" transform="translate(-1874.68 -133.647)"/>
</g>
<g id="Vector" figma:type="vector">
<use xlink:href="#path4_fill" transform="translate(-1877 -139.378)"/>
</g>
<g id="Vector" figma:type="vector">
<use xlink:href="#path5_fill" transform="translate(-1863.29 -139.383)"/>
</g>
<g id="Vector" figma:type="vector">
<use xlink:href="#path6_fill" transform="translate(-1872.92 -126.237)"/>
</g>
</g>
</g>
</g>
</g>
<defs>
<path id="path0_fill" d="M 20.9624 41.6269C 32.5396 41.6269 41.9247 32.3084 41.9247 20.8134C 41.9247 9.31849 32.5396 0 20.9624 0C 9.38517 0 0 9.31849 0 20.8134C 0 32.3084 9.38517 41.6269 20.9624 41.6269Z"/>
<path id="path1_fill" d="M 21.0682 0.00158462C 32.8347 -0.140647 42.5221 9.30992 42.6651 21.0682C 42.808 32.8265 33.356 42.522 21.597 42.665C 9.83122 42.8058 0.145339 33.3626 0.00161851 21.5969C -0.142102 9.83118 9.304 0.150518 21.0682 0.00158462ZM 4.46962 21.5522C 4.5977 30.8546 12.238 38.3072 21.5404 38.1963C 30.8256 38.0883 38.2827 30.4517 38.1933 21.1337C 38.107 11.85 30.384 4.32065 21.1055 4.46958C 11.786 4.62299 4.34377 12.2648 4.46962 21.5522Z"/>
<path id="path2_fill" d="M 0.000186817 1.95847C 0.0013703 1.43851 0.208805 0.940267 0.57696 0.573088C 0.945116 0.20591 1.44391 -0.000198775 1.96387 -1.74765e-07C 2.22302 0.00205343 2.47922 0.0551302 2.71786 0.156198C 2.95649 0.257267 3.17288 0.404348 3.35467 0.589044C 3.53646 0.77374 3.6801 0.992434 3.77737 1.23264C 3.87465 1.47285 3.92366 1.72986 3.9216 1.98901C 3.91955 2.24815 3.86647 2.50436 3.7654 2.74299C 3.66434 2.98162 3.51725 3.19801 3.33256 3.37981C 3.14786 3.5616 2.92917 3.70523 2.68896 3.80251C 2.44876 3.89978 2.19174 3.94879 1.9326 3.94673C 1.41276 3.93909 0.917228 3.72537 0.554883 3.35255C 0.192537 2.97974 -0.00697502 2.47832 0.000186817 1.95847Z"/>
<path id="path3_fill" d="M 1.97325 3.94524C 1.58216 3.94537 1.19985 3.82924 0.874905 3.6116C 0.549959 3.39397 0.29704 3.08465 0.148278 2.72296C -0.000484256 2.36126 -0.0383738 1.96351 0.0394229 1.58023C 0.11722 1.19695 0.307191 0.845446 0.585202 0.570374C 0.863214 0.295303 1.21672 0.109079 1.6008 0.0353609C 1.98488 -0.0383572 2.38221 0.00375845 2.74231 0.156357C 3.1024 0.308955 3.40901 0.565148 3.62318 0.892389C 3.83735 1.21963 3.94941 1.60315 3.94513 1.99422C 3.94002 2.51369 3.72997 3.01013 3.36068 3.37552C 2.99139 3.7409 2.49275 3.94566 1.97325 3.94524Z"/>
<path id="path4_fill" d="M -9.09017e-08 1.65503C 0.188401 1.76227 0.279995 1.81216 0.372333 1.86652C 1.45188 2.53807 2.74529 2.77694 3.99348 2.53528C 5.24167 2.29362 6.35248 1.58928 7.10338 0.563352C 7.2069 0.409699 7.32839 0.268954 7.46528 0.144106C 7.78326 -0.118017 8.11687 -0.0130201 8.24793 0.381653C 8.39686 0.828453 8.25538 1.24323 8.04166 1.62674C 7.40646 2.76831 6.4369 3.4884 5.18139 3.82872C 4.27549 4.06586 3.31894 4.02239 2.43829 3.70406C 1.55763 3.38573 0.794365 2.80754 0.249464 2.04598C 0.180954 1.95364 0.12287 1.85088 -9.09017e-08 1.65503Z"/>
<path id="path5_fill" d="M 8.19071 1.71287C 7.74391 2.57222 7.06179 3.17019 6.20245 3.5656C 5.21341 4.0199 4.09567 4.11018 3.04654 3.82052C 1.99741 3.53085 1.08434 2.87985 0.468514 1.98244C 0.263351 1.66182 0.112398 1.3096 0.0217144 0.93991C -0.0326463 0.734382 0.0217153 0.469281 0.111075 0.263753C 0.22352 -0.00581622 0.475961 -0.0758153 0.729148 0.0865221C 0.88119 0.191988 1.01331 0.323601 1.11935 0.475238C 2.79113 2.7353 5.61491 3.28784 8.0105 1.81564C 8.06858 1.7784 8.12965 1.74638 8.19071 1.71287Z"/>
<path id="path6_fill" d="M -9.09017e-08 0.240527C 5.65947 1.74252 9.94949 1.1736 13.0063 0.160104C 13.1622 0.11046 13.3169 0.0570904 13.4703 -7.27214e-07C 13.4033 2.44623 12.4523 4.37492 10.4514 5.67883C 8.1124 7.20242 5.65277 7.25082 3.25494 5.82776C 1.17211 4.59236 0.138508 2.67559 -9.09017e-08 0.240527Z"/>
</defs>
</svg>
